# xmcd CD database file
#
# Track frame offsets:
#	150
#	27620
#	54127
#	77962
#	104567
#	122227
#	163860
#	181925
#
# Disc length: 2743 seconds
#
# Revision: 0
# Processed by: cddbd v1.5.1PL0 Copyright (c) Steve Scherf et al.
# Submitted via: CDex 1.51
#
DISCID=690ab508
DTITLE=午前四時 - LIVE BOOTLEG
DYEAR=1998
DGENRE=Rock
TTITLE0=ト・ビ・ラ
TTITLE1=A・DANCE
TTITLE2=な・が・れ
TTITLE3=ファンファーレ
TTITLE4=それがおまえにいちばん
TTITLE5=消えてなくなる
TTITLE6=ト･ビ･ラ(スタジオ・バージョン)
TTITLE7=それがおまえにいちばん(スタジオ･バージョン)
EXTD=YEAR: 1998.08/26
EXTT0=
EXTT1=
EXTT2=
EXTT3=
EXTT4=
EXTT5=
EXTT6=
EXTT7=
PLAYORDER=
